<svg height="100%" width="100%" id="svg" viewBox="0 0 1440 500" xmlns="http://www.w3.org/2000/svg" class="transition duration-300 ease-in-out delay-150"><path d="M 0,500 C 0,500 0,166 0,166 C 26.39583520177512,192.32570813154746 52.79167040355024,218.65141626309494 79,221 C 105.20832959644976,223.34858373690506 131.22915358757416,201.72004307916774 156,186 C 180.77084641242584,170.27995692083226 204.29171524615327,160.46841142023408 222,162 C 239.70828475384673,163.53158857976592 251.6039854278128,176.40631123989587 278,170 C 304.3960145721872,163.59368876010413 345.2923430425957,137.9063436201825 371,148 C 396.7076569574043,158.0936563798175 407.2266424018043,203.96831427937408 426,214 C 444.7733575981957,224.03168572062592 471.8010873501868,198.22039926232114 497,184 C 522.1989126498132,169.77960073767886 545.5690081974485,167.15008867134142 569,174 C 592.4309918025515,180.84991132865858 615.9228798600195,197.17924605231323 641,201 C 666.0771201399805,204.82075394768677 692.7394723624732,196.13292711940574 716,197 C 739.2605276375268,197.86707288059426 759.1192306900875,208.2890454700638 784,191 C 808.8807693099125,173.7109545299362 838.783604877177,128.71089100033905 862,135 C 885.216395122823,141.28910899966095 901.746349801205,198.86739052858005 922,221 C 942.253650198795,243.13260947141995 966.230995918003,229.81954688534077 995,220 C 1023.769004081997,210.18045311465923 1057.3296665267824,203.85442193005673 1085,199 C 1112.6703334732176,194.14557806994327 1134.4503379748678,190.7627653944323 1156,170 C 1177.5496620251322,149.2372346055677 1198.8689815737469,111.09451649221403 1226,107 C 1253.1310184262531,102.90548350778597 1286.073735730145,132.85916863671162 1308,156 C 1329.926264269855,179.14083136328838 1340.8360755056729,195.46880896093953 1361,196 C 1381.1639244943271,196.53119103906047 1410.5819622471636,181.26559551953022 1440,166 C 1440,166 1440,500 1440,500 Z" stroke="none" stroke-width="0" fill="#8ed1fc88" class="transition-all duration-300 ease-in-out delay-150"></path><path d="M 0,500 C 0,500 0,333 0,333 C 27.289516361976844,323.7237445507004 54.57903272395369,314.4474891014009 75,299 C 95.42096727604631,283.5525108985991 108.97338546616206,261.93378814509697 131,289 C 153.02661453383794,316.06621185490303 183.5274254113981,391.81735831821135 213,394 C 242.4725745886019,396.18264168178865 270.9169128882457,324.7967785820577 293,308 C 315.0830871117543,291.2032214179423 330.80492303561937,328.99552735355803 357,340 C 383.19507696438063,351.00447264644197 419.86339496927695,335.22111200371023 444,334 C 468.13660503072305,332.77888799628977 479.7414970872727,346.120024631601 498,339 C 516.2585029127273,331.879975368399 541.1706166816326,304.29878946988583 569,308 C 596.8293833183674,311.70121053011417 627.5760361861966,346.6848174888557 654,349 C 680.4239638138034,351.3151825111443 702.5252385735811,320.96194057469137 724,319 C 745.4747614264189,317.03805942530863 766.3230095194791,343.4674202123788 790,352 C 813.6769904805209,360.5325797876212 840.1827233485029,351.16837857579344 865,359 C 889.8172766514971,366.83162142420656 912.9460970865093,391.85906548444757 933,392 C 953.0539029134907,392.14093451555243 970.0328883054593,367.39535948641634 996,337 C 1021.9671116945407,306.60464051358366 1056.9223496916532,270.559496569887 1087,277 C 1117.0776503083468,283.440503430113 1142.2777129279273,332.36665423403576 1162,357 C 1181.7222870720727,381.63334576596424 1195.9667985966382,381.97388649396976 1221,366 C 1246.0332014033618,350.02611350603024 1281.8550926855205,317.73779979008503 1305,309 C 1328.1449073144795,300.26220020991497 1338.6128306612798,315.07491434568993 1359,323 C 1379.3871693387202,330.92508565431007 1409.69358466936,331.96254282715506 1440,333 C 1440,333 1440,500 1440,500 Z" stroke="none" stroke-width="0" fill="#8ed1fcff" class="transition-all duration-300 ease-in-out delay-150"></path></svg>